<svg width="71" height="52" viewBox="0 0 71 52" fill="none" xmlns="http://www.w3.org/2000/svg">
<path d="M12.3798 38.1443L12.3813 37.9443L12.8025 37.7875C13.0833 37.6829 13.2576 37.5576 13.3254 37.4114C13.4066 37.252 13.4482 37.039 13.4502 36.7723L13.5292 26.3326C13.5312 26.066 13.4928 25.8524 13.414 25.6918C13.3352 25.5312 13.1629 25.4032 12.8969 25.3078L12.4781 25.1447L12.4797 24.9447L17.5795 24.9833L17.578 25.1832L17.2168 25.3405C16.9628 25.4319 16.7884 25.5639 16.6938 25.7366C16.5993 25.8959 16.551 26.1088 16.549 26.3755L16.4627 37.7752L19.5426 37.7985C20.0359 37.8022 20.3968 37.6849 20.6253 37.4467C20.8671 37.2085 21.0964 36.8635 21.3132 36.4118L22.1058 34.7378L22.3058 34.7393L22.0995 38.2178L12.3798 38.1443ZM23.0045 38.2247L23.006 38.0247L23.4072 37.8677C23.6746 37.7764 23.8489 37.651 23.9301 37.4917C24.0246 37.3324 24.0729 37.1194 24.0749 36.8527L24.1539 26.413C24.1559 26.1464 24.1175 25.9327 24.0387 25.7721C23.9599 25.6115 23.7809 25.4835 23.5016 25.3881L23.1028 25.225L23.1044 25.0251L28.2442 25.0639L28.2427 25.2639L27.8415 25.4209C27.5741 25.5122 27.3932 25.6375 27.2986 25.7968C27.2174 25.9562 27.1758 26.1692 27.1738 26.4359L27.0948 36.8756C27.0928 37.1422 27.1312 37.3559 27.21 37.5165C27.3022 37.6638 27.4812 37.7919 27.7471 37.9006L28.1459 38.0636L28.1443 38.2636L23.0045 38.2247ZM29.0199 38.2702L29.0215 38.0702L29.3825 37.9329C29.65 37.8283 29.831 37.6963 29.9255 37.537C30.0334 37.3778 30.0883 37.1649 30.0904 36.8983L30.1693 26.4585C30.1715 26.1786 30.1198 25.9582 30.0143 25.7974C29.9222 25.6367 29.7432 25.5086 29.4772 25.4133L29.1183 25.2706L29.1198 25.0706L34.8596 25.114C36.4863 25.1263 37.6573 25.4352 38.3727 26.0406C39.0883 26.6327 39.4426 27.3821 39.4358 28.2887C39.4306 28.9687 39.1593 29.5867 38.6217 30.1426C38.0976 30.6853 37.1947 31.0652 35.913 31.2821C37.3784 31.4532 38.4488 31.848 39.1241 32.4665C39.7996 33.0716 40.134 33.8075 40.1275 34.6741C40.1242 35.1008 40.0276 35.5334 39.8376 35.972C39.6477 36.3972 39.3248 36.7881 38.8687 37.1447C38.426 37.5013 37.8172 37.7901 37.0421 38.0109C36.2672 38.2184 35.2864 38.3176 34.0998 38.3086L29.0199 38.2702ZM33.0932 31.2408L33.9532 31.2473C34.8465 31.2541 35.4881 31.0523 35.8779 30.6419C36.281 30.2316 36.4864 29.5131 36.4942 28.4865C36.5022 27.4198 36.328 26.6585 35.9714 26.2024C35.6149 25.7464 35.0299 25.5153 34.2166 25.5091L33.1367 25.501L33.0932 31.2408ZM33.0429 37.9006L34.0428 37.9082C35.0428 37.9158 35.7848 37.6547 36.2688 37.125C36.7662 36.5954 37.0191 35.764 37.0277 34.6307C37.0358 33.564 36.8082 32.8023 36.345 32.3454C35.8818 31.8886 35.1168 31.6561 34.0502 31.6481L33.0902 31.6408L33.0429 37.9006ZM40.6407 38.3581L40.6422 38.1581L41.0633 38.0213C41.3306 37.93 41.5049 37.8113 41.586 37.6652C41.6672 37.5059 41.7088 37.2862 41.711 37.0062L41.7901 26.5465C41.7921 26.2798 41.7537 26.0729 41.6748 25.9256C41.6093 25.7651 41.4503 25.6372 41.1977 25.542L40.7391 25.3585L40.7406 25.1585L46.4604 25.2018C48.0337 25.2137 49.2381 25.5228 50.0735 26.1291C50.909 26.7221 51.3228 27.5453 51.3148 28.5986C51.3104 29.1852 51.086 29.7702 50.6416 30.3536C50.1971 30.9369 49.5004 31.385 48.5513 31.6978L51.2895 37.2387C51.4078 37.4662 51.5397 37.6539 51.6852 37.8017C51.8442 37.9362 52.05 38.0578 52.3025 38.1663L52.5617 38.2683L52.5604 38.4483L48.9805 38.4212L46.0682 32.099L44.7083 32.0887L44.6709 37.0286C44.669 37.2819 44.7074 37.4889 44.7862 37.6495C44.865 37.8101 45.0307 37.9313 45.2834 38.0132L45.7621 38.1969L45.7606 38.3969L40.6407 38.3581ZM44.7113 31.6887L45.6713 31.696C46.6312 31.7033 47.3265 31.4552 47.7569 30.9517C48.1875 30.435 48.4067 29.67 48.4143 28.6567C48.4221 27.63 48.2278 26.8685 47.8316 26.3722C47.4354 25.8625 46.764 25.6041 45.8174 25.5969L44.7574 25.5889L44.7113 31.6887ZM53.1989 38.4531L53.2005 38.2531L53.6016 38.0962C53.869 38.0049 54.0433 37.8795 54.1245 37.7201C54.2191 37.5608 54.2673 37.3479 54.2693 37.0812L54.3483 26.6415C54.3504 26.3748 54.312 26.1612 54.2332 26.0006C54.1544 25.84 53.9754 25.712 53.6961 25.6165L53.2973 25.4535L53.2988 25.2535L58.4387 25.2924L58.4371 25.4924L58.0359 25.6494C57.7686 25.7407 57.5876 25.866 57.4931 26.0253C57.4119 26.1847 57.3703 26.3977 57.3683 26.6643L57.2893 37.104C57.2872 37.3707 57.3256 37.5843 57.4044 37.7449C57.4966 37.8923 57.6757 38.0203 57.9415 38.129L58.3403 38.292L58.3388 38.492L53.1989 38.4531Z" fill="white"/>
<path d="M10.4821 48.2059L10.4829 48.1059L10.7335 48.0178C10.8673 47.9654 10.9711 47.9029 11.045 47.8301C11.1189 47.7507 11.1797 47.6411 11.2275 47.5015L13.3321 41.6072L14.1821 41.6137L16.167 47.5789C16.2192 47.7259 16.2784 47.8397 16.3444 47.9202C16.4105 47.994 16.5134 48.0582 16.653 48.1126L16.7727 48.1535L16.7719 48.2535L14.232 48.2342L14.2328 48.1342L14.3831 48.0854C14.5235 48.0331 14.6074 47.9604 14.6348 47.8673C14.6689 47.7675 14.6664 47.6508 14.6274 47.5172L14.1683 46.0737L11.9484 46.0569L11.4578 47.4632C11.41 47.6095 11.3924 47.7261 11.4051 47.8128C11.4245 47.8997 11.5039 47.9703 11.6435 48.0246L11.8628 48.1163L11.8621 48.2163L10.4821 48.2059ZM12.0199 45.8574L14.1099 45.8732L13.1234 42.7557L12.0199 45.8574ZM17.0868 48.2558L17.0875 48.1558L17.2981 48.0774C17.4385 48.0252 17.5257 47.9625 17.5595 47.8894C17.6002 47.8097 17.621 47.7032 17.622 47.5699L17.6615 42.35C17.6625 42.2167 17.6433 42.1099 17.6039 42.0296C17.5645 41.9493 17.4783 41.8853 17.3453 41.8376L17.1359 41.756L17.1367 41.656L19.6866 41.6753L19.6859 41.7753L19.5053 41.854C19.3783 41.8997 19.2911 41.9657 19.2438 42.052C19.1965 42.1316 19.1724 42.2381 19.1713 42.3714L19.1282 48.0713L20.6682 48.0829C20.9148 48.0848 21.0953 48.0262 21.2095 47.907C21.3304 47.7879 21.4451 47.6155 21.5534 47.3896L21.9498 46.5526L22.0498 46.5533L21.9466 48.2926L17.0868 48.2558ZM22.3991 48.296L22.3999 48.196L22.6105 48.1176C22.7509 48.0654 22.838 48.0027 22.8719 47.9296C22.9125 47.8499 22.9333 47.7434 22.9343 47.6101L22.9738 42.3902C22.9748 42.2569 22.9556 42.1501 22.9162 42.0698C22.8768 41.9895 22.7907 41.9255 22.6577 41.8778L22.4483 41.7962L22.449 41.6962L24.999 41.7155L24.9982 41.8155L24.8176 41.8941C24.6906 41.9399 24.6034 42.0059 24.5561 42.0922C24.5088 42.1718 24.4847 42.2783 24.4837 42.4116L24.4406 48.1115L25.9805 48.1231C26.2272 48.125 26.4076 48.0664 26.5219 47.9472C26.6428 47.8281 26.7574 47.6557 26.8658 47.4298L27.2621 46.5928L27.3621 46.5935L27.259 48.3328L22.3991 48.296ZM29.977 48.3534L29.9778 48.2534L30.1784 48.1749C30.3121 48.1292 30.3992 48.0666 30.4398 47.9869C30.4871 47.9072 30.5112 47.8007 30.5122 47.6674L30.5517 42.4475C30.5527 42.3142 30.5335 42.2074 30.4941 42.1271C30.4547 42.0468 30.3652 41.9828 30.2256 41.9351L30.0262 41.8536L30.027 41.7536L32.5969 41.773L32.5961 41.873L32.3955 41.9515C32.2618 41.9971 32.1714 42.0598 32.1241 42.1394C32.0835 42.2191 32.0627 42.3256 32.0617 42.459L32.0222 47.6788C32.0212 47.8122 32.0404 47.919 32.0798 47.9993C32.1259 48.073 32.2154 48.137 32.3483 48.1913L32.5477 48.2728L32.5469 48.3728L29.977 48.3534ZM33.1147 48.3771L33.1155 48.2771L33.4462 48.1796C33.5665 48.1472 33.6536 48.0845 33.7077 47.9916C33.7618 47.892 33.7893 47.7755 33.7903 47.6422L33.8267 42.8323C33.7546 42.6718 33.6955 42.5513 33.6494 42.471C33.61 42.3907 33.5639 42.3237 33.511 42.2699C33.4581 42.2095 33.3853 42.1356 33.2926 42.0483L33.1239 41.877L33.1247 41.777L34.8946 41.7904L38.1803 46.3454L38.2088 42.5755C38.2098 42.4422 38.1874 42.322 38.1415 42.215C38.1023 42.108 38.0162 42.0373 37.8831 42.003L37.5538 41.9105L37.5546 41.8105L38.9845 41.8213L38.9838 41.9213L38.7131 42.0093C38.5928 42.0484 38.5189 42.1178 38.4915 42.2176C38.4641 42.3174 38.4499 42.434 38.4489 42.5673L38.4044 48.4471L37.8444 48.4429L34.0642 43.1641L34.0303 47.644C34.0293 47.7773 34.0484 47.8908 34.0877 47.9845C34.127 48.0781 34.2099 48.1454 34.3362 48.1863L34.6355 48.2886L34.6347 48.3886L33.1147 48.3771ZM44.824 48.6457C44.4173 48.6426 44.0246 48.5663 43.6457 48.4168C43.2735 48.2673 42.9385 48.0481 42.6406 47.7592C42.3495 47.4636 42.1189 47.0985 41.9489 46.6639C41.7788 46.2293 41.696 45.722 41.7004 45.142C41.7047 44.5687 41.7952 44.066 41.9718 43.634C42.1484 43.202 42.3878 42.8438 42.69 42.5594C42.9922 42.2683 43.3305 42.0509 43.7049 41.907C44.0861 41.7566 44.4767 41.6829 44.8766 41.6859C45.2833 41.689 45.6727 41.7653 46.0449 41.9148C46.4239 42.0576 46.7589 42.2768 47.05 42.5724C47.3478 42.8613 47.5817 43.2264 47.7517 43.6677C47.9218 44.1024 48.0046 44.6097 48.0002 45.1896C47.9959 45.7563 47.9055 46.259 47.7288 46.6976C47.5522 47.1296 47.3128 47.4912 47.0106 47.7822C46.7151 48.0667 46.3768 48.2841 45.9956 48.4346C45.6212 48.5784 45.2306 48.6488 44.824 48.6457ZM44.8256 48.4357C45.1922 48.4385 45.4896 48.3441 45.7177 48.1525C45.9459 47.9542 46.1118 47.6188 46.2154 47.1462C46.3257 46.667 46.384 46.0108 46.3903 45.1775C46.3966 44.3375 46.3483 43.6804 46.2452 43.2063C46.1488 42.7256 45.988 42.3877 45.7628 42.1926C45.5377 41.9909 45.2418 41.8887 44.8751 41.8859C44.5151 41.8832 44.2211 41.981 43.9929 42.1792C43.7648 42.3708 43.5956 42.7062 43.4853 43.1854C43.3817 43.658 43.3267 44.3143 43.3204 45.1542C43.3141 45.9875 43.3591 46.6446 43.4554 47.1253C43.5585 47.5994 43.7226 47.9374 43.9478 48.1391C44.173 48.3341 44.4656 48.433 44.8256 48.4357ZM48.3292 48.4922L48.3299 48.3922L48.6607 48.2947C48.7809 48.2623 48.868 48.1996 48.9221 48.1067C48.9762 48.0071 49.0037 47.8906 49.0047 47.7573L49.0411 42.9475C48.969 42.7869 48.9099 42.6665 48.8639 42.5861C48.8245 42.5058 48.7783 42.4388 48.7254 42.385C48.6725 42.3246 48.5997 42.2508 48.507 42.1634L48.3383 41.9921L48.3391 41.8921L50.109 41.9055L53.3947 46.4605L53.4232 42.6906C53.4242 42.5573 53.4018 42.4371 53.3559 42.3301C53.3167 42.2231 53.2306 42.1525 53.0975 42.1181L52.7682 42.0256L52.769 41.9256L54.1989 41.9364L54.1982 42.0364L53.9275 42.1244C53.8072 42.1635 53.7333 42.2329 53.7059 42.3327C53.6785 42.4325 53.6643 42.5491 53.6633 42.6824L53.6188 48.5622L53.0588 48.558L49.2786 43.2793L49.2447 47.7591C49.2437 47.8925 49.2629 48.0059 49.3021 48.0996C49.3414 48.1932 49.4243 48.2605 49.5506 48.3015L49.8499 48.4037L49.8491 48.5037L48.3292 48.4922ZM54.6345 48.5399L54.6353 48.4399L54.8659 48.3517C54.9796 48.3059 55.0567 48.2465 55.0973 48.1734C55.1446 48.0938 55.1687 47.9873 55.1697 47.854L55.2092 42.6341C55.2102 42.5008 55.191 42.3973 55.1516 42.3237C55.1188 42.2434 55.0393 42.1795 54.913 42.1319L54.6837 42.0401L54.6845 41.9401L59.4743 41.9764L59.5227 43.5168L59.4227 43.516L58.9998 42.5728C58.9407 42.4523 58.8781 42.3552 58.812 42.2814C58.7459 42.2075 58.6462 42.1701 58.5128 42.1691L56.7129 42.1555L56.691 45.0454L57.761 45.0535C57.8943 45.0545 57.9946 45.0219 58.0617 44.9558C58.1356 44.883 58.1997 44.7868 58.2539 44.6672L58.4569 44.2687L58.5569 44.2695L58.5433 46.0694L58.4433 46.0687L58.2465 45.6472C58.1874 45.5267 58.1248 45.4329 58.0586 45.3657C57.9925 45.2919 57.8928 45.2545 57.7595 45.2535L56.6895 45.2454L56.666 48.3553L58.6859 48.3706C58.8192 48.3716 58.9228 48.339 58.9967 48.2729C59.0705 48.2002 59.1313 48.1006 59.1789 47.9743L59.596 47.0374L59.696 47.0382L59.6244 48.5777L54.6345 48.5399Z" fill="#DBC96C"/>
<path d="M17.2461 21.1282L17.2476 20.9282L17.7489 20.7519C18.0164 20.6473 18.224 20.5222 18.3718 20.3767C18.5196 20.2178 18.6413 19.9987 18.7368 19.7194L22.9461 7.9309L24.646 7.94377L28.6159 19.8741C28.7203 20.1683 28.8386 20.3958 28.9707 20.5568C29.1029 20.7045 29.3086 20.8327 29.5878 20.9415L29.8272 21.0233L29.8257 21.2233L24.7458 21.1849L24.7473 20.9849L25.0481 20.8872C25.3289 20.7826 25.4967 20.6372 25.5514 20.451C25.6196 20.2515 25.6147 20.0181 25.5367 19.7508L24.6185 16.8638L20.1787 16.8302L19.1973 19.6429C19.1018 19.9355 19.0667 20.1686 19.0921 20.3421C19.1307 20.5157 19.2897 20.6569 19.5689 20.7657L20.0075 20.949L20.006 21.149L17.2461 21.1282ZM20.3217 16.4313L24.5016 16.4629L22.5287 10.2278L20.3217 16.4313ZM30.4554 21.2281L30.4569 21.0281L30.8779 20.8913C31.1453 20.8 31.3195 20.6813 31.4006 20.5352C31.4818 20.3758 31.5235 20.1562 31.5256 19.8762L31.6048 9.41646C31.6068 9.1498 31.5683 8.94284 31.4895 8.79557C31.424 8.63507 31.265 8.5072 31.0123 8.41195L30.5537 8.22847L30.5552 8.02848L36.2751 8.07176C37.8484 8.08366 39.0527 8.39278 39.8882 8.99912C40.7237 9.59212 41.1375 10.4153 41.1295 11.4686C41.1251 12.0552 40.9006 12.6402 40.4562 13.2235C40.0118 13.8069 39.315 14.2549 38.366 14.5678L41.1041 20.1086C41.2224 20.3362 41.3543 20.5239 41.4999 20.6716C41.6589 20.8062 41.8646 20.9277 42.1171 21.0363L42.3764 21.1383L42.375 21.3183L38.7951 21.2912L35.8829 14.969L34.5229 14.9587L34.4855 19.8986C34.4836 20.1519 34.5221 20.3588 34.6008 20.5194C34.6796 20.68 34.8454 20.8013 35.0981 20.8832L35.5767 21.0668L35.5752 21.2668L30.4554 21.2281ZM34.5259 14.5587L35.4859 14.566C36.4459 14.5732 37.1411 14.3252 37.5716 13.8217C38.0022 13.305 38.2213 12.5399 38.229 11.5266C38.2368 10.5 38.0425 9.73851 37.6463 9.24216C37.2501 8.73248 36.5787 8.47406 35.6321 8.4669L34.5721 8.45888L34.5259 14.5587ZM47.2522 21.7152C46.5188 21.7097 45.7729 21.6107 45.0143 21.4183C44.2557 21.2392 43.6241 21.0011 43.1197 20.7039L43.2403 17.9847L43.4403 17.9863L44.0504 19.2909C44.2342 19.6656 44.4317 20.0005 44.6428 20.2954C44.854 20.577 45.1457 20.7992 45.5178 20.9621C45.7835 21.0974 46.0361 21.1927 46.2757 21.2478C46.5287 21.2897 46.8085 21.3118 47.1152 21.3142C47.9285 21.3203 48.5701 21.1052 49.0401 20.6687C49.5234 20.2323 49.7677 19.6675 49.773 18.9742C49.7779 18.3209 49.6217 17.813 49.3045 17.4506C48.9873 17.0749 48.4767 16.711 47.7727 16.359L46.9554 15.9928C45.8126 15.4775 44.9171 14.8907 44.2687 14.2324C43.6337 13.5609 43.3204 12.6785 43.3287 11.5852C43.3346 10.7986 43.5398 10.1201 43.9441 9.54982C44.3618 8.97963 44.9317 8.54393 45.654 8.24272C46.3897 7.94161 47.2441 7.79474 48.2175 7.8021C48.9241 7.80745 49.59 7.90583 50.2153 8.09723C50.8538 8.28873 51.4052 8.54624 51.8695 8.86977L51.7313 11.2688L51.5313 11.2673L50.7227 9.76112C50.4996 9.29275 50.2754 8.96437 50.0501 8.776C49.825 8.57429 49.5661 8.43233 49.2733 8.35011C49.1004 8.29547 48.9407 8.26092 48.7941 8.24648C48.6476 8.2187 48.4611 8.20396 48.2344 8.20224C47.5544 8.1971 46.9796 8.39276 46.5099 8.78921C46.0404 9.17234 45.803 9.69722 45.798 10.3639C45.7929 11.0439 45.9687 11.5919 46.3256 12.0079C46.6825 12.4106 47.2065 12.7746 47.8974 13.0998L48.8143 13.5068C50.09 14.0765 51.0055 14.6834 51.5606 15.3276C52.1159 15.9585 52.3897 16.7739 52.3821 17.7739C52.3732 18.9472 51.9193 19.9038 51.0204 20.6437C50.1348 21.3703 48.8788 21.7275 47.2522 21.7152Z" fill="white"/>
</svg>
