<svg width="70" height="74" viewBox="0 0 70 74" fill="none" xmlns="http://www.w3.org/2000/svg">
<path d="M0 -21H70V39C70 58.33 54.33 74 35 74C15.67 74 0 58.33 0 39V-21Z" fill="#D9D9D9"/>
<path d="M46.0607 52.0607C46.6464 51.4749 46.6464 50.5251 46.0607 49.9393L36.5147 40.3934C35.9289 39.8076 34.9792 39.8076 34.3934 40.3934C33.8076 40.9792 33.8076 41.9289 34.3934 42.5147L42.8787 51L34.3934 59.4853C33.8076 60.0711 33.8076 61.0208 34.3934 61.6066C34.9792 62.1924 35.9289 62.1924 36.5147 61.6066L46.0607 52.0607ZM25 52.5H45V49.5H25V52.5Z" fill="black"/>
</svg>
