<svg width="20" height="20" viewBox="0 0 20 20" fill="none" xmlns="http://www.w3.org/2000/svg">
<circle cx="10" cy="10" r="9" stroke="#D9D9D9" stroke-width="2"/>
<path d="M9.0708 12.084C9.0708 11.804 9.1148 11.556 9.2028 11.34C9.2988 11.124 9.4148 10.932 9.5508 10.764C9.6948 10.596 9.8468 10.44 10.0068 10.296C10.1668 10.152 10.3148 10.016 10.4508 9.888C10.5948 9.752 10.7108 9.612 10.7988 9.468C10.8948 9.324 10.9428 9.164 10.9428 8.988C10.9428 8.7 10.8228 8.468 10.5828 8.292C10.3508 8.116 10.0388 8.028 9.6468 8.028C9.2708 8.028 8.9348 8.108 8.6388 8.268C8.3428 8.42 8.0988 8.636 7.9068 8.916L6.4548 8.064C6.7748 7.576 7.2188 7.188 7.7868 6.9C8.3548 6.604 9.0428 6.456 9.8508 6.456C10.4508 6.456 10.9788 6.544 11.4348 6.72C11.8908 6.888 12.2468 7.136 12.5028 7.464C12.7668 7.792 12.8988 8.196 12.8988 8.676C12.8988 8.988 12.8508 9.264 12.7548 9.504C12.6588 9.744 12.5348 9.952 12.3828 10.128C12.2308 10.304 12.0668 10.468 11.8908 10.62C11.7228 10.772 11.5628 10.92 11.4108 11.064C11.2588 11.208 11.1308 11.36 11.0268 11.52C10.9308 11.68 10.8828 11.868 10.8828 12.084H9.0708ZM9.9828 15.096C9.6468 15.096 9.3708 14.988 9.1548 14.772C8.9388 14.556 8.8308 14.3 8.8308 14.004C8.8308 13.7 8.9388 13.448 9.1548 13.248C9.3708 13.04 9.6468 12.936 9.9828 12.936C10.3268 12.936 10.6028 13.04 10.8108 13.248C11.0268 13.448 11.1348 13.7 11.1348 14.004C11.1348 14.3 11.0268 14.556 10.8108 14.772C10.6028 14.988 10.3268 15.096 9.9828 15.096Z" fill="white"/>
</svg>
