<svg width="20" height="20" viewBox="0 0 20 20" fill="none" xmlns="http://www.w3.org/2000/svg">
<circle cx="10" cy="10" r="9" stroke="#D9D9D9" stroke-width="2"/>
<path d="M9.05931 15V8.544H10.9313V15H9.05931ZM9.99531 7.644C9.65131 7.644 9.37131 7.544 9.15531 7.344C8.93931 7.144 8.83131 6.896 8.83131 6.6C8.83131 6.304 8.93931 6.056 9.15531 5.856C9.37131 5.656 9.65131 5.556 9.99531 5.556C10.3393 5.556 10.6193 5.652 10.8353 5.844C11.0513 6.028 11.1593 6.268 11.1593 6.564C11.1593 6.876 11.0513 7.136 10.8353 7.344C10.6273 7.544 10.3473 7.644 9.99531 7.644Z" fill="white"/>
</svg>
